<mxfile host="app.diagrams.net" agent="Mozilla/5.0 (X11; Ubuntu; Linux x86_64; rv:137.0) Gecko/20100101 Firefox/137.0" version="26.2.14">
  <diagram name="Page-1" id="_oNgXSbfllSgRDNfcqKC">
    <mxGraphModel>
      <root>
        <mxCell id="0" />
        <mxCell id="1" parent="0" />
        <mxCell id="2" value="FireController" style="whiteSpace=wrap;strokeWidth=2;verticalAlign=top;" vertex="1" parent="1">
          <mxGeometry x="8" y="300" width="950" height="153" as="geometry" />
        </mxCell>
        <mxCell id="3" value="SIGNAL Ignite TO Forest.Cell" style="whiteSpace=wrap;strokeWidth=2;" vertex="1" parent="2">
          <mxGeometry x="43" y="46" width="260" height="78" as="geometry" />
        </mxCell>
        <mxCell id="4" value="SIGNAL Spread TO Forest.Cell" style="whiteSpace=wrap;strokeWidth=2;" vertex="1" parent="2">
          <mxGeometry x="353" y="46" width="260" height="78" as="geometry" />
        </mxCell>
        <mxCell id="5" value="SIGNAL BurnComplete TO Forest.Cell" style="whiteSpace=wrap;strokeWidth=2;" vertex="1" parent="2">
          <mxGeometry x="663" y="46" width="260" height="78" as="geometry" />
        </mxCell>
        <mxCell id="6" value="Forest" style="whiteSpace=wrap;strokeWidth=2;verticalAlign=top;" vertex="1" parent="1">
          <mxGeometry x="1008" y="8" width="2737" height="736" as="geometry" />
        </mxCell>
        <mxCell id="7" value="Cremat" style="whiteSpace=wrap;strokeWidth=2;verticalAlign=top;" vertex="1" parent="6">
          <mxGeometry x="43" y="383" width="322" height="139" as="geometry" />
        </mxCell>
        <mxCell id="8" value="* No transitions *" style="shape=parallelogram;perimeter=parallelogramPerimeter;fixedSize=1;strokeWidth=2;whiteSpace=wrap;" vertex="1" parent="7">
          <mxGeometry x="43" y="58" width="252" height="39" as="geometry" />
        </mxCell>
        <mxCell id="9" value="Cell" style="whiteSpace=wrap;strokeWidth=2;" vertex="1" parent="6">
          <mxGeometry x="812" y="46" width="88" height="54" as="geometry" />
        </mxCell>
        <mxCell id="10" value="INTEGER&#xa;// VegetaciÃ³n: tiempo para quemarse" style="whiteSpace=wrap;strokeWidth=2;" vertex="1" parent="6">
          <mxGeometry x="415" y="413" width="260" height="78" as="geometry" />
        </mxCell>
        <mxCell id="11" value="INTEGER&#xa;// Humedad: tiempo para eliminarse" style="whiteSpace=wrap;strokeWidth=2;" vertex="1" parent="6">
          <mxGeometry x="725" y="413" width="260" height="78" as="geometry" />
        </mxCell>
        <mxCell id="12" value="ENUM(Pendent, EnProces, Cremat)&#xa;// Estado del fuego" style="whiteSpace=wrap;strokeWidth=2;" vertex="1" parent="6">
          <mxGeometry x="1035" y="401" width="260" height="102" as="geometry" />
        </mxCell>
        <mxCell id="13" value="EnProces" style="whiteSpace=wrap;strokeWidth=2;verticalAlign=top;" vertex="1" parent="6">
          <mxGeometry x="1345" y="198" width="815" height="509" as="geometry" />
        </mxCell>
        <mxCell id="14" value="Vegetacio := Vegetacio - 1;" style="whiteSpace=wrap;strokeWidth=2;" vertex="1" parent="13">
          <mxGeometry x="48" y="58" width="251" height="54" as="geometry" />
        </mxCell>
        <mxCell id="15" value="Spread" style="whiteSpace=wrap;strokeWidth=2;" vertex="1" parent="13">
          <mxGeometry x="117" y="212" width="112" height="54" as="geometry" />
        </mxCell>
        <mxCell id="16" value="OUTPUT Spread TO NeighborCells;" style="whiteSpace=wrap;strokeWidth=2;" vertex="1" parent="13">
          <mxGeometry x="43" y="389" width="260" height="78" as="geometry" />
        </mxCell>
        <mxCell id="17" value="BurnComplete" style="whiteSpace=wrap;strokeWidth=2;" vertex="1" parent="13">
          <mxGeometry x="520" y="212" width="162" height="54" as="geometry" />
        </mxCell>
        <mxCell id="18" value="IF Vegetacio &amp;lt;= 0 THEN&#xa;    Estat := Cremat;&#xa;ENDIF;" style="whiteSpace=wrap;strokeWidth=2;" vertex="1" parent="13">
          <mxGeometry x="353" y="389" width="260" height="78" as="geometry" />
        </mxCell>
        <mxCell id="19" value="Cremat" style="whiteSpace=wrap;strokeWidth=2;" vertex="1" parent="13">
          <mxGeometry x="663" y="401" width="112" height="54" as="geometry" />
        </mxCell>
        <mxCell id="20" value="" style="curved=1;startArrow=none;endArrow=block;exitX=0.5;exitY=1;entryX=0.5;entryY=0;" edge="1" parent="13" source="14" target="15">
          <mxGeometry relative="1" as="geometry">
            <Array as="points" />
          </mxGeometry>
        </mxCell>
        <mxCell id="21" value="TASK" style="curved=1;startArrow=none;endArrow=block;exitX=0.5;exitY=1;entryX=0.5;entryY=0;" edge="1" parent="13" source="15" target="16">
          <mxGeometry relative="1" as="geometry">
            <Array as="points" />
          </mxGeometry>
        </mxCell>
        <mxCell id="22" value="TASK" style="curved=1;startArrow=none;endArrow=block;exitX=0.28;exitY=1;entryX=0.5;entryY=0;" edge="1" parent="13" source="17" target="18">
          <mxGeometry relative="1" as="geometry">
            <Array as="points">
              <mxPoint x="483" y="328" />
            </Array>
          </mxGeometry>
        </mxCell>
        <mxCell id="23" value="" style="curved=1;startArrow=none;endArrow=block;exitX=0.72;exitY=1;entryX=0.5;entryY=0;" edge="1" parent="13" source="17" target="19">
          <mxGeometry relative="1" as="geometry">
            <Array as="points">
              <mxPoint x="719" y="328" />
            </Array>
          </mxGeometry>
        </mxCell>
        <mxCell id="24" value="Pendent" style="whiteSpace=wrap;strokeWidth=2;verticalAlign=top;" vertex="1" parent="6">
          <mxGeometry x="2210" y="227" width="500" height="451" as="geometry" />
        </mxCell>
        <mxCell id="25" value="Ignite" style="rounded=1;arcSize=20;strokeWidth=2" vertex="1" parent="24">
          <mxGeometry x="258" y="58" width="69" height="54" as="geometry" />
        </mxCell>
        <mxCell id="26" value="IF Humitat &gt; 0 THEN&#xa;    Humitat := Humitat - 1;&#xa;ELSE&#xa;    Estat := EnProces;&#xa;    OUTPUT Spread TO NeighborCells;&#xa;ENDIF;" style="whiteSpace=wrap;strokeWidth=2;" vertex="1" parent="24">
          <mxGeometry x="43" y="235" width="260" height="174" as="geometry" />
        </mxCell>
        <mxCell id="27" value="Pendent" style="whiteSpace=wrap;strokeWidth=2;" vertex="1" parent="24">
          <mxGeometry x="353" y="295" width="120" height="54" as="geometry" />
        </mxCell>
        <mxCell id="28" value="TASK" style="curved=1;startArrow=none;endArrow=block;exitX=0;exitY=0.97;entryX=0.5;entryY=0;" edge="1" parent="24" source="25" target="26">
          <mxGeometry relative="1" as="geometry">
            <Array as="points">
              <mxPoint x="173" y="174" />
            </Array>
          </mxGeometry>
        </mxCell>
        <mxCell id="29" value="" style="curved=1;startArrow=none;endArrow=block;exitX=1.01;exitY=0.97;entryX=0.5;entryY=0;" edge="1" parent="24" source="25" target="27">
          <mxGeometry relative="1" as="geometry">
            <Array as="points">
              <mxPoint x="413" y="174" />
            </Array>
          </mxGeometry>
        </mxCell>
        <mxCell id="30" value="DCL" style="curved=1;startArrow=none;endArrow=block;exitX=0;exitY=0.69;entryX=0.5;entryY=0;" edge="1" parent="6" source="9" target="10">
          <mxGeometry relative="1" as="geometry">
            <Array as="points">
              <mxPoint x="545" y="149" />
            </Array>
          </mxGeometry>
        </mxCell>
        <mxCell id="31" value="DCL" style="curved=1;startArrow=none;endArrow=block;exitX=0.49;exitY=0.99;entryX=0.5;entryY=0;" edge="1" parent="6" source="9" target="11">
          <mxGeometry relative="1" as="geometry">
            <Array as="points" />
          </mxGeometry>
        </mxCell>
        <mxCell id="32" value="DCL" style="curved=1;startArrow=none;endArrow=block;exitX=0.99;exitY=0.69;entryX=0.5;entryY=0;" edge="1" parent="6" source="9" target="12">
          <mxGeometry relative="1" as="geometry">
            <Array as="points">
              <mxPoint x="1165" y="149" />
            </Array>
          </mxGeometry>
        </mxCell>
      </root>
    </mxGraphModel>
  </diagram>
</mxfile>
